<svg width="34" height="34" viewBox="0 0 34 34" fill="none" xmlns="http://www.w3.org/2000/svg">
<line x1="12.1213" y1="10" x2="25" y2="22.8787" stroke="#EE3C99" stroke-width="3" stroke-linecap="round"/>
<line x1="1.5" y1="-1.5" x2="19.7132" y2="-1.5" transform="matrix(-0.707107 0.707107 0.707107 0.707107 26.1543 10)" stroke="#EE3C99" stroke-width="3" stroke-linecap="round"/>
<path d="M32 15.6286V17.0086C31.9981 20.2432 30.9507 23.3906 29.014 25.9813C27.0772 28.572 24.3549 30.4673 21.253 31.3844C18.1511 32.3016 14.8359 32.1914 11.8017 31.0705C8.76752 29.9495 6.17698 27.8777 4.41644 25.1642C2.6559 22.4506 1.81969 19.2407 2.03252 16.0131C2.24534 12.7854 3.49581 9.71307 5.59742 7.25419C7.69903 4.79531 10.5392 3.08166 13.6943 2.3688C16.8494 1.65595 20.1504 1.98209 23.105 3.29859" stroke="#EE3C99" stroke-width="3" stroke-linecap="round" stroke-linejoin="round"/>
</svg>
