<svg width="25" height="17" viewBox="0 0 25 17" fill="none" xmlns="http://www.w3.org/2000/svg">
<path fill-rule="evenodd" clip-rule="evenodd" d="M0.96268 10.1342H3.32677C3.39927 10.1348 3.4686 10.1648 3.51967 10.2178C3.57074 10.2708 3.5994 10.3424 3.5994 10.4171V16.7193C3.5994 16.7937 3.57068 16.8651 3.51955 16.9178C3.46842 16.9704 3.39908 17 3.32677 17H0.96268C0.890187 17 0.820633 16.9705 0.769183 16.9179C0.717733 16.8653 0.688559 16.7939 0.688022 16.7193V10.4171C0.688554 10.3422 0.717662 10.2706 0.769056 10.2177C0.820449 10.1647 0.89 10.1348 0.96268 10.1342ZM23.6006 3.68536C23.8736 3.68493 24.1408 3.76696 24.369 3.92131C24.5971 4.07565 24.7764 4.29553 24.8844 4.55371C24.9925 4.81189 25.0247 5.09704 24.9769 5.37386C24.9292 5.65068 24.8037 5.90701 24.616 6.11111C24.4282 6.31521 24.1864 6.45811 23.9206 6.52214C23.6548 6.58616 23.3765 6.56849 23.1203 6.47131C22.8642 6.37413 22.6413 6.20171 22.4793 5.9754C22.3173 5.74908 22.2233 5.47882 22.209 5.19806L18.6039 2.5896C18.3628 2.77242 18.0711 2.87082 17.7718 2.87035C17.4587 2.87101 17.1546 2.76245 16.9091 2.56237L13.8818 4.93407C13.89 4.99587 13.8941 5.05817 13.894 5.12054C13.8939 5.3203 13.8533 5.51785 13.7748 5.70053C13.6963 5.88321 13.5817 6.047 13.4382 6.18143C13.2947 6.31585 13.1255 6.41795 12.9415 6.48119C12.7575 6.54442 12.5627 6.5674 12.3696 6.54866C12.1765 6.52991 11.9893 6.46985 11.82 6.37232C11.6507 6.2748 11.503 6.14194 11.3864 5.98228C11.2699 5.82261 11.1869 5.63963 11.143 5.44507C11.099 5.2505 11.095 5.04862 11.1311 4.85236L8.04276 2.5477C7.79961 2.74745 7.49871 2.85797 7.18769 2.86176C6.87667 2.86556 6.57331 2.76241 6.32563 2.56865L2.78763 5.17082C2.77696 5.49916 2.65739 5.81382 2.44882 6.06241C2.24026 6.311 1.95529 6.4785 1.64138 6.53703C1.32747 6.59556 1.00356 6.54157 0.723606 6.38407C0.443647 6.22656 0.224534 5.97504 0.102758 5.6714C-0.0190182 5.36775 -0.0361072 5.03031 0.054337 4.71527C0.144781 4.40023 0.337299 4.1266 0.59983 3.93996C0.86236 3.75332 1.17906 3.66493 1.49717 3.68951C1.81529 3.71409 2.11563 3.85016 2.34818 4.07506L5.78242 1.56089C5.78242 1.51898 5.78242 1.47918 5.78242 1.43727C5.78242 1.05664 5.92925 0.691598 6.19061 0.422451C6.45197 0.153304 6.80644 0.00209808 7.17606 0.00209808C7.54567 0.00209808 7.90015 0.153304 8.16151 0.422451C8.42286 0.691598 8.56969 1.05664 8.56969 1.43727C8.56969 1.4666 8.56969 1.49594 8.56969 1.52317L11.7639 3.90116C11.9857 3.76213 12.2407 3.68958 12.5004 3.69165C12.785 3.69097 13.0629 3.78099 13.2958 3.94935L16.3822 1.52317C16.3822 1.49384 16.3822 1.46451 16.3822 1.43518C16.396 1.06376 16.5489 0.712281 16.809 0.454523C17.069 0.196765 17.4159 0.052773 17.7768 0.052773C18.1378 0.052773 18.4847 0.196765 18.7447 0.454523C19.0048 0.712281 19.1577 1.06376 19.1715 1.43518C19.1747 1.48331 19.1747 1.53161 19.1715 1.57974L22.6485 4.09392C22.9028 3.83642 23.244 3.69005 23.6006 3.68536ZM21.6678 9.55177H24.0319C24.0695 9.55118 24.1068 9.55846 24.1415 9.57317C24.1762 9.58789 24.2077 9.60973 24.2339 9.63737C24.2602 9.66501 24.2807 9.69786 24.2943 9.73394C24.3078 9.77001 24.3141 9.80854 24.3127 9.84719V16.7193C24.3122 16.7939 24.283 16.8653 24.2315 16.9179C24.1801 16.9705 24.1105 17 24.038 17H21.6739C21.6016 17 21.5323 16.9704 21.4812 16.9178C21.43 16.8651 21.4013 16.7937 21.4013 16.7193V9.84719C21.4013 9.77253 21.43 9.70091 21.481 9.64792C21.5321 9.59494 21.6014 9.56489 21.6739 9.56434L21.6678 9.55177ZM16.4961 5.96907H18.8602C18.9329 5.96962 19.0025 5.9996 19.0538 6.05252C19.1052 6.10545 19.1343 6.17707 19.1349 6.25192V16.7276C19.1343 16.8023 19.1052 16.8737 19.0537 16.9263C19.0023 16.9789 18.9327 17.0084 18.8602 17.0084H16.4961C16.4603 17.0084 16.4249 17.0011 16.3918 16.987C16.3587 16.9729 16.3287 16.9522 16.3034 16.9262C16.278 16.9001 16.258 16.8691 16.2443 16.8351C16.2306 16.801 16.2235 16.7645 16.2235 16.7276V6.25192C16.2232 6.21487 16.2301 6.17814 16.2437 6.14383C16.2572 6.10953 16.2773 6.07833 16.3026 6.05204C16.328 6.02575 16.3581 6.00488 16.3913 5.99064C16.4245 5.9764 16.4602 5.96907 16.4961 5.96907ZM11.3183 9.55596H13.6824C13.719 9.55622 13.7552 9.56401 13.7888 9.57887C13.8224 9.59373 13.8528 9.61536 13.8782 9.64249C13.9036 9.66962 13.9235 9.7017 13.9367 9.73686C13.9499 9.77201 13.9561 9.80952 13.955 9.84719V16.7193C13.955 16.7937 13.9263 16.8651 13.8752 16.9178C13.8241 16.9704 13.7547 17 13.6824 17H11.3183C11.246 17 11.1767 16.9704 11.1255 16.9178C11.0744 16.8651 11.0457 16.7937 11.0457 16.7193V9.84719C11.0457 9.77253 11.0743 9.70091 11.1254 9.64792C11.1765 9.59494 11.2458 9.56489 11.3183 9.56434V9.55596ZM6.1405 5.96907H8.50459C8.57708 5.96962 8.64642 5.99967 8.69749 6.05265C8.74856 6.10564 8.77722 6.17726 8.77721 6.25192V16.7276C8.77721 16.7645 8.77016 16.801 8.75646 16.8351C8.74276 16.8691 8.72268 16.9001 8.69736 16.9262C8.67205 16.9522 8.64199 16.9729 8.60892 16.987C8.57584 17.0011 8.54039 17.0084 8.50459 17.0084H6.1405C6.068 17.0084 5.99845 16.9789 5.947 16.9263C5.89555 16.8737 5.86637 16.8023 5.86584 16.7276V6.25192C5.86584 6.1769 5.89477 6.10496 5.94628 6.05191C5.99779 5.99887 6.06765 5.96907 6.1405 5.96907Z" fill="#0156FF"/>
</svg>
