<svg width="14" height="14" viewBox="0 0 14 14" xmlns="http://www.w3.org/2000/svg">
<path d="M12.9712 1.251C12.7416 1.12325 12.4891 1.04201 12.2281 1.01193C11.9671 0.981844 11.7027 1.0035 11.4501 1.07567C11.1975 1.14783 10.9616 1.26908 10.7559 1.43249C10.5501 1.5959 10.3786 1.79826 10.2512 2.028L6.53819 8.71L4.41319 6.585C4.22869 6.39398 4.008 6.24162 3.76399 6.1368C3.51999 6.03198 3.25755 5.97681 2.99199 5.9745C2.72643 5.97219 2.46307 6.0228 2.21728 6.12336C1.97148 6.22392 1.74818 6.37243 1.5604 6.56021C1.37261 6.748 1.2241 6.9713 1.12354 7.21709C1.02298 7.46289 0.972377 7.72625 0.974685 7.9918C0.976993 8.25736 1.03217 8.5198 1.13698 8.76381C1.2418 9.00782 1.39417 9.22851 1.58519 9.413L5.58519 13.413C5.96319 13.792 6.47319 14 6.99919 14L7.27619 13.98C7.58274 13.9371 7.87515 13.8237 8.13041 13.6486C8.38566 13.4735 8.5968 13.2415 8.74719 12.971L13.7472 3.971C13.8748 3.74145 13.956 3.48901 13.9861 3.22808C14.0162 2.96715 13.9946 2.70286 13.9225 2.45028C13.8505 2.1977 13.7294 1.96179 13.5661 1.75602C13.4029 1.55024 13.2007 1.37864 12.9712 1.251Z" fill="#4ECB71"/>
</svg>
