<svg width="25" height="17" viewBox="0 0 25 17" fill="none" xmlns="http://www.w3.org/2000/svg">
<path fill-rule="evenodd" clip-rule="evenodd" d="M0.96268 10.1343H3.32677C3.39927 10.1349 3.4686 10.1649 3.51967 10.2179C3.57074 10.2709 3.5994 10.3425 3.5994 10.4172V16.7194C3.5994 16.7938 3.57068 16.8652 3.51955 16.9179C3.46842 16.9705 3.39908 17.0001 3.32677 17.0001H0.96268C0.890187 17.0001 0.820633 16.9706 0.769183 16.918C0.717733 16.8654 0.688559 16.794 0.688022 16.7194V10.4172C0.688554 10.3423 0.717662 10.2707 0.769056 10.2178C0.820449 10.1648 0.89 10.1349 0.96268 10.1343ZM23.6006 3.68546C23.8736 3.68503 24.1408 3.76706 24.369 3.92141C24.5971 4.07575 24.7764 4.29562 24.8844 4.55381C24.9925 4.81199 25.0247 5.09714 24.9769 5.37396C24.9292 5.65078 24.8037 5.90711 24.616 6.1112C24.4282 6.3153 24.1864 6.45821 23.9206 6.52224C23.6548 6.58626 23.3765 6.56859 23.1203 6.47141C22.8642 6.37423 22.6413 6.20181 22.4793 5.9755C22.3173 5.74918 22.2233 5.47892 22.209 5.19816L18.6039 2.5897C18.3628 2.77252 18.0711 2.87092 17.7718 2.87045C17.4587 2.8711 17.1546 2.76255 16.9091 2.56246L13.8818 4.93417C13.89 4.99597 13.8941 5.05827 13.894 5.12064C13.8939 5.3204 13.8533 5.51794 13.7748 5.70063C13.6963 5.88331 13.5817 6.0471 13.4382 6.18153C13.2947 6.31595 13.1255 6.41805 12.9415 6.48129C12.7575 6.54452 12.5627 6.5675 12.3696 6.54876C12.1765 6.53001 11.9893 6.46995 11.82 6.37242C11.6507 6.27489 11.503 6.14204 11.3864 5.98237C11.2699 5.8227 11.1869 5.63973 11.143 5.44516C11.099 5.2506 11.095 5.04872 11.1311 4.85246L8.04276 2.5478C7.79961 2.74755 7.49871 2.85807 7.18769 2.86186C6.87667 2.86566 6.57331 2.76251 6.32564 2.56875L2.78763 5.17092C2.77696 5.49926 2.65739 5.81392 2.44882 6.06251C2.24026 6.3111 1.95529 6.4786 1.64138 6.53713C1.32747 6.59565 1.00356 6.54167 0.723606 6.38416C0.443647 6.22666 0.224534 5.97514 0.102758 5.6715C-0.0190182 5.36785 -0.0361072 5.03041 0.054337 4.71537C0.144781 4.40032 0.3373 4.1267 0.59983 3.94006C0.86236 3.75342 1.17906 3.66503 1.49717 3.68961C1.81529 3.71419 2.11563 3.85026 2.34818 4.07516L5.78242 1.56099C5.78242 1.51908 5.78242 1.47927 5.78242 1.43737C5.78242 1.05674 5.92925 0.691698 6.19061 0.42255C6.45197 0.153403 6.80644 0.00219727 7.17606 0.00219727C7.54567 0.00219727 7.90015 0.153403 8.16151 0.42255C8.42286 0.691698 8.56969 1.05674 8.56969 1.43737C8.56969 1.4667 8.56969 1.49604 8.56969 1.52327L11.7639 3.90126C11.9857 3.76223 12.2407 3.68968 12.5004 3.69175C12.785 3.69107 13.0629 3.78109 13.2958 3.94945L16.3822 1.52327C16.3822 1.49394 16.3822 1.46461 16.3822 1.43528C16.396 1.06386 16.5489 0.712381 16.809 0.454623C17.069 0.196865 17.4159 0.0528722 17.7768 0.0528722C18.1378 0.0528722 18.4847 0.196865 18.7447 0.454623C19.0048 0.712381 19.1577 1.06386 19.1715 1.43528C19.1747 1.48341 19.1747 1.53171 19.1715 1.57984L22.6485 4.09402C22.9028 3.83652 23.244 3.69015 23.6006 3.68546V3.68546ZM21.6678 9.55187H24.0319C24.0695 9.55127 24.1068 9.55856 24.1415 9.57327C24.1762 9.58799 24.2077 9.60983 24.2339 9.63747C24.2602 9.66511 24.2807 9.69796 24.2943 9.73403C24.3078 9.77011 24.3141 9.80864 24.3127 9.84728V16.7194C24.3122 16.794 24.283 16.8654 24.2315 16.918C24.1801 16.9706 24.1105 17.0001 24.038 17.0001H21.6739C21.6016 17.0001 21.5323 16.9705 21.4812 16.9179C21.43 16.8652 21.4013 16.7938 21.4013 16.7194V9.84728C21.4013 9.77263 21.43 9.701 21.481 9.64802C21.5321 9.59504 21.6015 9.56499 21.6739 9.56444L21.6678 9.55187ZM16.4961 5.96917H18.8602C18.9329 5.96972 19.0025 5.99969 19.0538 6.05262C19.1052 6.10555 19.1343 6.17717 19.1349 6.25202V16.7277C19.1343 16.8024 19.1052 16.8738 19.0537 16.9264C19.0023 16.979 18.9327 17.0085 18.8602 17.0085H16.4961C16.4603 17.0085 16.4249 17.0012 16.3918 16.9871C16.3587 16.973 16.3287 16.9523 16.3034 16.9263C16.278 16.9002 16.258 16.8692 16.2443 16.8352C16.2306 16.8011 16.2235 16.7646 16.2235 16.7277V6.25202C16.2232 6.21497 16.2301 6.17824 16.2437 6.14393C16.2572 6.10963 16.2773 6.07843 16.3026 6.05214C16.328 6.02585 16.3581 6.00498 16.3913 5.99074C16.4245 5.9765 16.4602 5.96917 16.4961 5.96917ZM11.3183 9.55606H13.6824C13.719 9.55632 13.7552 9.56411 13.7888 9.57897C13.8224 9.59383 13.8528 9.61546 13.8782 9.64259C13.9036 9.66972 13.9235 9.7018 13.9367 9.73696C13.9499 9.77211 13.9561 9.80962 13.955 9.84728V16.7194C13.955 16.7938 13.9263 16.8652 13.8752 16.9179C13.8241 16.9705 13.7547 17.0001 13.6824 17.0001H11.3183C11.246 17.0001 11.1767 16.9705 11.1255 16.9179C11.0744 16.8652 11.0457 16.7938 11.0457 16.7194V9.84728C11.0457 9.77263 11.0743 9.701 11.1254 9.64802C11.1765 9.59504 11.2458 9.56499 11.3183 9.56444V9.55606ZM6.1405 5.96917H8.50459C8.57708 5.96972 8.64642 5.99977 8.69749 6.05275C8.74856 6.10573 8.77722 6.17736 8.77721 6.25202V16.7277C8.77721 16.7646 8.77016 16.8011 8.75646 16.8352C8.74276 16.8692 8.72268 16.9002 8.69736 16.9263C8.67205 16.9523 8.64199 16.973 8.60892 16.9871C8.57584 17.0012 8.54039 17.0085 8.50459 17.0085H6.1405C6.068 17.0085 5.99845 16.979 5.947 16.9264C5.89555 16.8738 5.86637 16.8024 5.86584 16.7277V6.25202C5.86584 6.177 5.89477 6.10506 5.94628 6.05201C5.99779 5.99897 6.06765 5.96917 6.1405 5.96917V5.96917Z" fill="white"/>
</svg>
