<svg width="10" height="10" viewBox="0 0 10 10" fill="none" xmlns="http://www.w3.org/2000/svg">
<circle cx="5" cy="5" r="4.66667" stroke="white" stroke-width="0.666667"/>
<path d="M5.21595 2.37012C5.70039 2.37012 6.08928 2.49456 6.38261 2.74345C6.67595 2.99234 6.82261 3.34789 6.82261 3.81012C6.82261 4.21456 6.68706 4.53456 6.41595 4.77012C6.14928 5.00567 5.79595 5.12789 5.35595 5.13678L5.32261 5.62345H4.16928L4.12928 4.29678H4.60928C4.9115 4.29678 5.14261 4.26345 5.30261 4.19678C5.46261 4.12567 5.54261 4.00123 5.54261 3.82345C5.54261 3.70345 5.50928 3.61012 5.44261 3.54345C5.38039 3.47234 5.29372 3.43678 5.18261 3.43678C5.05817 3.43678 4.96261 3.47456 4.89595 3.55012C4.83372 3.62123 4.80261 3.71901 4.80261 3.84345H3.56928C3.56039 3.57234 3.61595 3.32567 3.73595 3.10345C3.86039 2.87678 4.04706 2.69901 4.29595 2.57012C4.54483 2.43678 4.8515 2.37012 5.21595 2.37012ZM4.75595 7.47012C4.52483 7.47012 4.33817 7.4079 4.19595 7.28345C4.05817 7.15456 3.98928 6.99234 3.98928 6.79678C3.98928 6.60123 4.05817 6.43901 4.19595 6.31012C4.33817 6.18123 4.52483 6.11678 4.75595 6.11678C4.98261 6.11678 5.16483 6.18123 5.30261 6.31012C5.44483 6.43901 5.51595 6.60123 5.51595 6.79678C5.51595 6.9879 5.44483 7.14789 5.30261 7.27678C5.16483 7.40567 4.98261 7.47012 4.75595 7.47012Z" fill="white"/>
</svg>
