<svg width="18" height="18" viewBox="0 0 18 18" fill="none" xmlns="http://www.w3.org/2000/svg">
<path d="M8.99922 2.2002C11.1992 2.2002 11.4992 2.2002 12.3992 2.2002C13.1992 2.2002 13.5992 2.4002 13.8992 2.5002C14.2992 2.7002 14.5992 2.8002 14.8992 3.1002C15.1992 3.4002 15.3992 3.7002 15.4992 4.1002C15.5992 4.4002 15.6992 4.8002 15.7992 5.6002C15.7992 6.5002 15.7992 6.7002 15.7992 9.0002C15.7992 11.3002 15.7992 11.5002 15.7992 12.4002C15.7992 13.2002 15.5992 13.6002 15.4992 13.9002C15.2992 14.3002 15.1992 14.6002 14.8992 14.9002C14.5992 15.2002 14.2992 15.4002 13.8992 15.5002C13.5992 15.6002 13.1992 15.7002 12.3992 15.8002C11.4992 15.8002 11.2992 15.8002 8.99922 15.8002C6.69922 15.8002 6.49922 15.8002 5.59922 15.8002C4.79922 15.8002 4.39922 15.6002 4.09922 15.5002C3.69922 15.3002 3.39922 15.2002 3.09922 14.9002C2.79922 14.6002 2.59922 14.3002 2.49922 13.9002C2.39922 13.6002 2.29922 13.2002 2.19922 12.4002C2.19922 11.5002 2.19922 11.3002 2.19922 9.0002C2.19922 6.7002 2.19922 6.5002 2.19922 5.6002C2.19922 4.8002 2.39922 4.4002 2.49922 4.1002C2.69922 3.7002 2.79922 3.4002 3.09922 3.1002C3.39922 2.8002 3.69922 2.6002 4.09922 2.5002C4.39922 2.4002 4.79922 2.3002 5.59922 2.2002C6.49922 2.2002 6.79922 2.2002 8.99922 2.2002ZM8.99922 0.700195C6.69922 0.700195 6.49922 0.700195 5.59922 0.700195C4.69922 0.700195 4.09922 0.900196 3.59922 1.1002C3.09922 1.3002 2.59922 1.6002 2.09922 2.1002C1.59922 2.6002 1.39922 3.0002 1.09922 3.6002C0.899219 4.1002 0.799219 4.7002 0.699219 5.6002C0.699219 6.5002 0.699219 6.8002 0.699219 9.0002C0.699219 11.3002 0.699219 11.5002 0.699219 12.4002C0.699219 13.3002 0.899219 13.9002 1.09922 14.4002C1.29922 14.9002 1.59922 15.4002 2.09922 15.9002C2.59922 16.4002 2.99922 16.6002 3.59922 16.9002C4.09922 17.1002 4.69922 17.2002 5.59922 17.3002C6.49922 17.3002 6.79922 17.3002 8.99922 17.3002C11.1992 17.3002 11.4992 17.3002 12.3992 17.3002C13.2992 17.3002 13.8992 17.1002 14.3992 16.9002C14.8992 16.7002 15.3992 16.4002 15.8992 15.9002C16.3992 15.4002 16.5992 15.0002 16.8992 14.4002C17.0992 13.9002 17.1992 13.3002 17.2992 12.4002C17.2992 11.5002 17.2992 11.2002 17.2992 9.0002C17.2992 6.8002 17.2992 6.5002 17.2992 5.6002C17.2992 4.7002 17.0992 4.1002 16.8992 3.6002C16.6992 3.1002 16.3992 2.6002 15.8992 2.1002C15.3992 1.6002 14.9992 1.4002 14.3992 1.1002C13.8992 0.900196 13.2992 0.800195 12.3992 0.700195C11.4992 0.700195 11.2992 0.700195 8.99922 0.700195Z" fill="white"/>
<path d="M8.99922 4.7002C6.59922 4.7002 4.69922 6.6002 4.69922 9.0002C4.69922 11.4002 6.59922 13.3002 8.99922 13.3002C11.3992 13.3002 13.2992 11.4002 13.2992 9.0002C13.2992 6.6002 11.3992 4.7002 8.99922 4.7002ZM8.99922 11.8002C7.49922 11.8002 6.19922 10.6002 6.19922 9.0002C6.19922 7.5002 7.39922 6.2002 8.99922 6.2002C10.4992 6.2002 11.7992 7.4002 11.7992 9.0002C11.7992 10.5002 10.4992 11.8002 8.99922 11.8002Z" fill="white"/>
<path d="M13.3992 5.6002C13.9515 5.6002 14.3992 5.15248 14.3992 4.6002C14.3992 4.04791 13.9515 3.6002 13.3992 3.6002C12.8469 3.6002 12.3992 4.04791 12.3992 4.6002C12.3992 5.15248 12.8469 5.6002 13.3992 5.6002Z" fill="white"/>
</svg>
