<svg width="31" height="32" viewBox="0 0 31 32" fill="none" xmlns="http://www.w3.org/2000/svg">
<path d="M6 9.14286C6 8.83975 6.11972 8.54906 6.33283 8.33474C6.54594 8.12041 6.83498 8 7.13636 8H23.0455C23.3469 8 23.6359 8.12041 23.849 8.33474C24.0621 8.54906 24.1818 8.83975 24.1818 9.14286C24.1818 9.44596 24.0621 9.73665 23.849 9.95098C23.6359 10.1653 23.3469 10.2857 23.0455 10.2857H7.13636C6.83498 10.2857 6.54594 10.1653 6.33283 9.95098C6.11972 9.73665 6 9.44596 6 9.14286Z" fill="white"/>
<path d="M6 22.8571C6 22.554 6.11972 22.2633 6.33283 22.049C6.54594 21.8346 6.83498 21.7142 7.13636 21.7142H23.0455C23.3469 21.7142 23.6359 21.8346 23.849 22.049C24.0621 22.2633 24.1818 22.554 24.1818 22.8571C24.1818 23.1602 24.0621 23.4509 23.849 23.6652C23.6359 23.8795 23.3469 24 23.0455 24H7.13636C6.83498 24 6.54594 23.8795 6.33283 23.6652C6.11972 23.4509 6 23.1602 6 22.8571Z" fill="white"/>
<path d="M7.13636 14.8572C6.83498 14.8572 6.54594 14.9776 6.33283 15.1919C6.11972 15.4062 6 15.6969 6 16C6 16.3031 6.11972 16.5938 6.33283 16.8082C6.54594 17.0225 6.83498 17.1429 7.13636 17.1429H16.2273C16.5287 17.1429 16.8177 17.0225 17.0308 16.8082C17.2439 16.5938 17.3636 16.3031 17.3636 16C17.3636 15.6969 17.2439 15.4062 17.0308 15.1919C16.8177 14.9776 16.5287 14.8572 16.2273 14.8572H7.13636Z" fill="white"/>
<g filter="url(#filter0_i_1194_3088)">
<rect x="0.25" y="0.25" width="30.5" height="31.5" rx="1.75" stroke="#0156FF" stroke-width="0.5"/>
</g>
<defs>
<filter id="filter0_i_1194_3088" x="0" y="0" width="35" height="36" filterUnits="userSpaceOnUse" color-interpolation-filters="sRGB">
<feFlood flood-opacity="0" result="BackgroundImageFix"/>
<feBlend mode="normal" in="SourceGraphic" in2="BackgroundImageFix" result="shape"/>
<feColorMatrix in="SourceAlpha" type="matrix" values="0 0 0 0 0 0 0 0 0 0 0 0 0 0 0 0 0 0 127 0" result="hardAlpha"/>
<feOffset dx="10" dy="12"/>
<feGaussianBlur stdDeviation="2"/>
<feComposite in2="hardAlpha" operator="arithmetic" k2="-1" k3="1"/>
<feColorMatrix type="matrix" values="0 0 0 0 0.00392157 0 0 0 0 0.337255 0 0 0 0 1 0 0 0 1 0"/>
<feBlend mode="normal" in2="shape" result="effect1_innerShadow_1194_3088"/>
</filter>
</defs>
</svg>
