<svg width="31" height="32" viewBox="0 0 31 32" fill="none" xmlns="http://www.w3.org/2000/svg">
<path d="M22.0971 8.48584H8.9029C7.85365 8.48584 7 9.33949 7 10.3888V20.6116C7 21.6608 7.85365 22.5145 8.9029 22.5145H22.0971C23.1463 22.5145 24 21.6608 24 20.6116C24 20.2412 24 10.8988 24 10.3888C24 9.33949 23.1463 8.48584 22.0971 8.48584ZM22.3689 16.3156H18.8086C18.3589 16.3156 17.9931 15.9498 17.9931 15.5001C17.9931 15.0505 18.359 14.6847 18.8086 14.6847H22.3689V16.3156ZM22.3689 13.0537H18.8086C17.4596 13.0537 16.3621 14.1512 16.3621 15.5002C16.3621 16.8492 17.4596 17.9467 18.8086 17.9467H22.3689V20.6116C22.3689 20.7614 22.247 20.8834 22.0971 20.8834H11.1505V20.3397C11.1505 19.8893 10.7854 19.5242 10.335 19.5242C9.88455 19.5242 9.51942 19.8893 9.51942 20.3397V20.8834H8.9029C8.75303 20.8834 8.63107 20.7614 8.63107 20.6116V10.3888C8.63107 10.2389 8.75303 10.1169 8.9029 10.1169H9.51939V10.6606C9.51939 11.111 9.88452 11.4762 10.3349 11.4762C10.7853 11.4762 11.1505 11.111 11.1505 10.6606V10.1169H22.0971C22.2469 10.1169 22.3689 10.2389 22.3689 10.3887V13.0537H22.3689Z" fill="white"/>
<path d="M19.0687 15.9459C19.3148 15.9459 19.5143 15.7464 19.5143 15.5003C19.5143 15.2542 19.3148 15.0547 19.0687 15.0547C18.8226 15.0547 18.623 15.2542 18.623 15.5003C18.623 15.7464 18.8226 15.9459 19.0687 15.9459Z" fill="white"/>
<path d="M10.3351 13.0715C9.88467 13.0715 9.51953 13.4367 9.51953 13.8871V17.1134C9.51953 17.5638 9.88467 17.929 10.3351 17.929C10.7855 17.929 11.1506 17.5638 11.1506 17.1134V13.8871C11.1506 13.4367 10.7854 13.0715 10.3351 13.0715Z" fill="white"/>
<g filter="url(#filter0_i_1175_2837)">
<rect x="0.25" y="0.25" width="30.5" height="31.5" rx="1.75" stroke="#0156FF" stroke-width="0.5"/>
</g>
<defs>
<filter id="filter0_i_1175_2837" x="0" y="0" width="35" height="36" filterUnits="userSpaceOnUse" color-interpolation-filters="sRGB">
<feFlood flood-opacity="0" result="BackgroundImageFix"/>
<feBlend mode="normal" in="SourceGraphic" in2="BackgroundImageFix" result="shape"/>
<feColorMatrix in="SourceAlpha" type="matrix" values="0 0 0 0 0 0 0 0 0 0 0 0 0 0 0 0 0 0 127 0" result="hardAlpha"/>
<feOffset dx="10" dy="12"/>
<feGaussianBlur stdDeviation="2"/>
<feComposite in2="hardAlpha" operator="arithmetic" k2="-1" k3="1"/>
<feColorMatrix type="matrix" values="0 0 0 0 0.00392157 0 0 0 0 0.337255 0 0 0 0 1 0 0 0 1 0"/>
<feBlend mode="normal" in2="shape" result="effect1_innerShadow_1175_2837"/>
</filter>
</defs>
</svg>
